<svg xmlns="http://www.w3.org/2000/svg" viewBox="0 0 64 64" role="img" aria-label="Jorge Grisman">
  <defs>
    <linearGradient id="g" x1="0" y1="0" x2="1" y2="1">
      <stop offset="0" stop-color="#7cc7ff"/>
      <stop offset="1" stop-color="#a78bfa"/>
    </linearGradient>
  </defs>
  <rect width="64" height="64" rx="14" fill="#0b0f1a"/>
  <g stroke="url(#g)" stroke-width="2" opacity="0.9">
    <line x1="16" y1="20" x2="32" y2="14"/>
    <line x1="16" y1="20" x2="32" y2="32"/>
    <line x1="16" y1="44" x2="32" y2="32"/>
    <line x1="16" y1="44" x2="32" y2="50"/>
    <line x1="32" y1="14" x2="48" y2="24"/>
    <line x1="32" y1="32" x2="48" y2="24"/>
    <line x1="32" y1="32" x2="48" y2="40"/>
    <line x1="32" y1="50" x2="48" y2="40"/>
  </g>
  <g fill="url(#g)">
    <circle cx="16" cy="20" r="4"/>
    <circle cx="16" cy="44" r="4"/>
    <circle cx="32" cy="14" r="4"/>
    <circle cx="32" cy="32" r="4.5"/>
    <circle cx="32" cy="50" r="4"/>
    <circle cx="48" cy="24" r="4"/>
    <circle cx="48" cy="40" r="4"/>
  </g>
</svg>
